<svg width="270" height="267" viewBox="0 0 270 267" fill="none" xmlns="http://www.w3.org/2000/svg">
<g filter="url(#filter0_d_8_2462)">
<circle cx="135" cy="115" r="115" fill="#F1A142"/>
<path d="M256 129.5C256 195.39 201.935 249 135 249C68.0647 249 14 195.39 14 129.5C14 63.6102 68.0647 10 135 10C201.935 10 256 63.6102 256 129.5Z" stroke="#FDC840" stroke-width="20"/>
<circle cx="135" cy="129" r="105" stroke="#F2B94B" stroke-width="20"/>
<path d="M100.531 164.172C95.4688 164.172 90.9219 163.375 86.8906 161.781C82.8906 160.188 79.4844 157.875 76.6719 154.844C73.8594 151.781 71.7031 148.078 70.2031 143.734C68.7031 139.391 67.9531 134.469 67.9531 128.969V128.922C67.9531 121.672 69.2656 115.469 71.8906 110.312C74.5156 105.125 78.2344 101.141 83.0469 98.3594C87.8906 95.5781 93.6094 94.1875 100.203 94.1875C105.641 94.1875 110.438 95.1562 114.594 97.0938C118.75 99 122.125 101.625 124.719 104.969C127.344 108.312 129.031 112.109 129.781 116.359L129.922 117.016H115.719L115.531 116.547C114.406 113.266 112.531 110.719 109.906 108.906C107.281 107.094 104.062 106.188 100.25 106.188C96.5312 106.188 93.3281 107.078 90.6406 108.859C87.9844 110.609 85.9375 113.172 84.5 116.547C83.0938 119.922 82.3906 124 82.3906 128.781V128.828C82.3906 132.484 82.8125 135.766 83.6562 138.672C84.5 141.547 85.7188 143.984 87.3125 145.984C88.9375 147.984 90.875 149.516 93.125 150.578C95.4062 151.641 97.9531 152.172 100.766 152.172C103.828 152.172 106.531 151.609 108.875 150.484C111.25 149.328 113.109 147.719 114.453 145.656C115.828 143.562 116.578 141.125 116.703 138.344L116.75 137.359H101.281V126.812H130.531V134.594C130.531 139.188 129.844 143.312 128.469 146.969C127.125 150.625 125.156 153.734 122.562 156.297C120 158.859 116.859 160.812 113.141 162.156C109.422 163.5 105.219 164.172 100.531 164.172ZM170.422 164.172C163.734 164.172 157.938 162.75 153.031 159.906C148.156 157.062 144.391 153.031 141.734 147.812C139.109 142.562 137.797 136.359 137.797 129.203V129.109C137.797 121.922 139.125 115.719 141.781 110.5C144.438 105.281 148.203 101.266 153.078 98.4531C157.984 95.6094 163.766 94.1875 170.422 94.1875C177.109 94.1875 182.891 95.6094 187.766 98.4531C192.641 101.297 196.406 105.328 199.062 110.547C201.719 115.734 203.047 121.922 203.047 129.109V129.203C203.047 136.359 201.719 142.562 199.062 147.812C196.406 153.031 192.641 157.062 187.766 159.906C182.922 162.75 177.141 164.172 170.422 164.172ZM170.422 152.172C174.172 152.172 177.406 151.234 180.125 149.359C182.844 147.453 184.938 144.781 186.406 141.344C187.875 137.906 188.609 133.859 188.609 129.203V129.109C188.609 124.391 187.859 120.328 186.359 116.922C184.891 113.484 182.781 110.844 180.031 109C177.312 107.125 174.109 106.188 170.422 106.188C166.734 106.188 163.516 107.109 160.766 108.953C158.047 110.797 155.938 113.438 154.438 116.875C152.969 120.281 152.234 124.359 152.234 129.109V129.203C152.234 133.891 152.969 137.953 154.438 141.391C155.938 144.828 158.047 147.484 160.766 149.359C163.484 151.234 166.703 152.172 170.422 152.172Z" fill="white"/>
</g>
<defs>
<filter id="filter0_d_8_2462" x="0" y="0" width="270" height="267" filterUnits="userSpaceOnUse" color-interpolation-filters="sRGB">
<feFlood flood-opacity="0" result="BackgroundImageFix"/>
<feColorMatrix in="SourceAlpha" type="matrix" values="0 0 0 0 0 0 0 0 0 0 0 0 0 0 0 0 0 0 127 0" result="hardAlpha"/>
<feOffset dy="4"/>
<feGaussianBlur stdDeviation="2"/>
<feComposite in2="hardAlpha" operator="out"/>
<feColorMatrix type="matrix" values="0 0 0 0 0 0 0 0 0 0 0 0 0 0 0 0 0 0 0.25 0"/>
<feBlend mode="normal" in2="BackgroundImageFix" result="effect1_dropShadow_8_2462"/>
<feBlend mode="normal" in="SourceGraphic" in2="effect1_dropShadow_8_2462" result="shape"/>
</filter>
</defs>
</svg>
