<svg width="270" height="267" viewBox="0 0 270 267" fill="none" xmlns="http://www.w3.org/2000/svg">
<g filter="url(#filter0_d_7_11626)">
<circle cx="135" cy="115" r="115" fill="#878584"/>
<path d="M256 129.5C256 195.39 201.935 249 135 249C68.0647 249 14 195.39 14 129.5C14 63.6102 68.0647 10 135 10C201.935 10 256 63.6102 256 129.5Z" stroke="#41403F" stroke-width="20"/>
<circle cx="135" cy="129" r="105" stroke="#6C6B68" stroke-width="20"/>
<path d="M100.531 165.172C95.4688 165.172 90.9219 164.375 86.8906 162.781C82.8906 161.188 79.4844 158.875 76.6719 155.844C73.8594 152.781 71.7031 149.078 70.2031 144.734C68.7031 140.391 67.9531 135.469 67.9531 129.969V129.922C67.9531 122.672 69.2656 116.469 71.8906 111.312C74.5156 106.125 78.2344 102.141 83.0469 99.3594C87.8906 96.5781 93.6094 95.1875 100.203 95.1875C105.641 95.1875 110.438 96.1562 114.594 98.0938C118.75 100 122.125 102.625 124.719 105.969C127.344 109.312 129.031 113.109 129.781 117.359L129.922 118.016H115.719L115.531 117.547C114.406 114.266 112.531 111.719 109.906 109.906C107.281 108.094 104.062 107.188 100.25 107.188C96.5312 107.188 93.3281 108.078 90.6406 109.859C87.9844 111.609 85.9375 114.172 84.5 117.547C83.0938 120.922 82.3906 125 82.3906 129.781V129.828C82.3906 133.484 82.8125 136.766 83.6562 139.672C84.5 142.547 85.7188 144.984 87.3125 146.984C88.9375 148.984 90.875 150.516 93.125 151.578C95.4062 152.641 97.9531 153.172 100.766 153.172C103.828 153.172 106.531 152.609 108.875 151.484C111.25 150.328 113.109 148.719 114.453 146.656C115.828 144.562 116.578 142.125 116.703 139.344L116.75 138.359H101.281V127.812H130.531V135.594C130.531 140.188 129.844 144.312 128.469 147.969C127.125 151.625 125.156 154.734 122.562 157.297C120 159.859 116.859 161.812 113.141 163.156C109.422 164.5 105.219 165.172 100.531 165.172ZM170.422 165.172C163.734 165.172 157.938 163.75 153.031 160.906C148.156 158.062 144.391 154.031 141.734 148.812C139.109 143.562 137.797 137.359 137.797 130.203V130.109C137.797 122.922 139.125 116.719 141.781 111.5C144.438 106.281 148.203 102.266 153.078 99.4531C157.984 96.6094 163.766 95.1875 170.422 95.1875C177.109 95.1875 182.891 96.6094 187.766 99.4531C192.641 102.297 196.406 106.328 199.062 111.547C201.719 116.734 203.047 122.922 203.047 130.109V130.203C203.047 137.359 201.719 143.562 199.062 148.812C196.406 154.031 192.641 158.062 187.766 160.906C182.922 163.75 177.141 165.172 170.422 165.172ZM170.422 153.172C174.172 153.172 177.406 152.234 180.125 150.359C182.844 148.453 184.938 145.781 186.406 142.344C187.875 138.906 188.609 134.859 188.609 130.203V130.109C188.609 125.391 187.859 121.328 186.359 117.922C184.891 114.484 182.781 111.844 180.031 110C177.312 108.125 174.109 107.188 170.422 107.188C166.734 107.188 163.516 108.109 160.766 109.953C158.047 111.797 155.938 114.438 154.438 117.875C152.969 121.281 152.234 125.359 152.234 130.109V130.203C152.234 134.891 152.969 138.953 154.438 142.391C155.938 145.828 158.047 148.484 160.766 150.359C163.484 152.234 166.703 153.172 170.422 153.172Z" fill="white"/>
</g>
<defs>
<filter id="filter0_d_7_11626" x="0" y="0" width="270" height="267" filterUnits="userSpaceOnUse" color-interpolation-filters="sRGB">
<feFlood flood-opacity="0" result="BackgroundImageFix"/>
<feColorMatrix in="SourceAlpha" type="matrix" values="0 0 0 0 0 0 0 0 0 0 0 0 0 0 0 0 0 0 127 0" result="hardAlpha"/>
<feOffset dy="4"/>
<feGaussianBlur stdDeviation="2"/>
<feComposite in2="hardAlpha" operator="out"/>
<feColorMatrix type="matrix" values="0 0 0 0 0 0 0 0 0 0 0 0 0 0 0 0 0 0 0.25 0"/>
<feBlend mode="normal" in2="BackgroundImageFix" result="effect1_dropShadow_7_11626"/>
<feBlend mode="normal" in="SourceGraphic" in2="effect1_dropShadow_7_11626" result="shape"/>
</filter>
</defs>
</svg>
